<mxfile host="Electron" agent="Mozilla/5.0 (Windows NT 10.0; Win64; x64) AppleWebKit/537.36 (KHTML, like Gecko) draw.io/24.7.5 Chrome/126.0.6478.183 Electron/31.3.0 Safari/537.36" version="24.7.5">
  <diagram id="C5RBs43oDa-KdzZeNtuy" name="Page-1">
    <mxGraphModel dx="1098" dy="828" grid="1" gridSize="10" guides="1" tooltips="1" connect="1" arrows="1" fold="1" page="1" pageScale="1" pageWidth="827" pageHeight="1169" math="0" shadow="0">
      <root>
        <mxCell id="WIyWlLk6GJQsqaUBKTNV-0" />
        <mxCell id="WIyWlLk6GJQsqaUBKTNV-1" parent="WIyWlLk6GJQsqaUBKTNV-0" />
        <mxCell id="et7KuElHQnrrayEZ3tEL-0" value="MobileNet" style="ellipse;whiteSpace=wrap;html=1;aspect=fixed;sketch=1;curveFitting=1;jiggle=2;strokeColor=default;" vertex="1" parent="WIyWlLk6GJQsqaUBKTNV-1">
          <mxGeometry x="394" y="550" width="80" height="80" as="geometry" />
        </mxCell>
        <mxCell id="et7KuElHQnrrayEZ3tEL-1" value="image" style="rounded=0;whiteSpace=wrap;html=1;sketch=1;curveFitting=1;jiggle=2;strokeColor=default;" vertex="1" parent="WIyWlLk6GJQsqaUBKTNV-1">
          <mxGeometry x="120" y="550" width="120" height="60" as="geometry" />
        </mxCell>
        <mxCell id="et7KuElHQnrrayEZ3tEL-2" style="edgeStyle=orthogonalEdgeStyle;rounded=0;orthogonalLoop=1;jettySize=auto;html=1;entryX=0.05;entryY=0.588;entryDx=0;entryDy=0;entryPerimeter=0;sketch=1;curveFitting=1;jiggle=2;flowAnimation=0;curved=1;" edge="1" parent="WIyWlLk6GJQsqaUBKTNV-1" source="et7KuElHQnrrayEZ3tEL-1" target="et7KuElHQnrrayEZ3tEL-0">
          <mxGeometry relative="1" as="geometry" />
        </mxCell>
        <mxCell id="et7KuElHQnrrayEZ3tEL-4" value="input" style="edgeLabel;html=1;align=center;verticalAlign=middle;resizable=0;points=[];" vertex="1" connectable="0" parent="et7KuElHQnrrayEZ3tEL-2">
          <mxGeometry x="-0.2114" y="-6" relative="1" as="geometry">
            <mxPoint as="offset" />
          </mxGeometry>
        </mxCell>
        <mxCell id="et7KuElHQnrrayEZ3tEL-5" value="cat 98%&lt;div&gt;dog 6%&lt;/div&gt;&lt;div&gt;...&lt;/div&gt;" style="text;html=1;align=center;verticalAlign=middle;whiteSpace=wrap;rounded=0;" vertex="1" parent="WIyWlLk6GJQsqaUBKTNV-1">
          <mxGeometry x="580" y="575" width="60" height="30" as="geometry" />
        </mxCell>
        <mxCell id="et7KuElHQnrrayEZ3tEL-6" style="edgeStyle=orthogonalEdgeStyle;rounded=0;orthogonalLoop=1;jettySize=auto;html=1;entryX=0;entryY=0.5;entryDx=0;entryDy=0;sketch=1;curveFitting=1;jiggle=2;flowAnimation=0;curved=1;" edge="1" parent="WIyWlLk6GJQsqaUBKTNV-1" source="et7KuElHQnrrayEZ3tEL-0" target="et7KuElHQnrrayEZ3tEL-5">
          <mxGeometry relative="1" as="geometry">
            <mxPoint x="474" y="733" as="sourcePoint" />
            <mxPoint x="632" y="750" as="targetPoint" />
          </mxGeometry>
        </mxCell>
        <mxCell id="et7KuElHQnrrayEZ3tEL-7" value="output" style="edgeLabel;html=1;align=center;verticalAlign=middle;resizable=0;points=[];" vertex="1" connectable="0" parent="et7KuElHQnrrayEZ3tEL-6">
          <mxGeometry x="-0.2114" y="-6" relative="1" as="geometry">
            <mxPoint as="offset" />
          </mxGeometry>
        </mxCell>
        <mxCell id="et7KuElHQnrrayEZ3tEL-8" value="&lt;h1 style=&quot;margin-top: 0px;&quot;&gt;Supervised Learning&lt;/h1&gt;&lt;p&gt;dataset&lt;/p&gt;" style="text;html=1;whiteSpace=wrap;overflow=hidden;rounded=0;" vertex="1" parent="WIyWlLk6GJQsqaUBKTNV-1">
          <mxGeometry x="160" y="230" width="180" height="120" as="geometry" />
        </mxCell>
        <mxCell id="et7KuElHQnrrayEZ3tEL-49" value="" style="edgeStyle=orthogonalEdgeStyle;rounded=0;orthogonalLoop=1;jettySize=auto;html=1;sketch=1;curveFitting=1;jiggle=2;curved=1;" edge="1" parent="WIyWlLk6GJQsqaUBKTNV-1" source="et7KuElHQnrrayEZ3tEL-35" target="et7KuElHQnrrayEZ3tEL-48">
          <mxGeometry relative="1" as="geometry" />
        </mxCell>
        <mxCell id="et7KuElHQnrrayEZ3tEL-35" value="" style="childLayout=tableLayout;recursiveResize=0;shadow=0;fillColor=none;" vertex="1" parent="WIyWlLk6GJQsqaUBKTNV-1">
          <mxGeometry x="360" y="270" width="212" height="143" as="geometry" />
        </mxCell>
        <mxCell id="et7KuElHQnrrayEZ3tEL-36" value="" style="shape=tableRow;horizontal=0;startSize=0;swimlaneHead=0;swimlaneBody=0;top=0;left=0;bottom=0;right=0;dropTarget=0;collapsible=0;recursiveResize=0;expand=0;fontStyle=0;fillColor=none;strokeColor=inherit;" vertex="1" parent="et7KuElHQnrrayEZ3tEL-35">
          <mxGeometry width="212" height="50" as="geometry" />
        </mxCell>
        <mxCell id="et7KuElHQnrrayEZ3tEL-37" value="image" style="connectable=0;recursiveResize=0;strokeColor=inherit;fillColor=none;align=center;whiteSpace=wrap;html=1;" vertex="1" parent="et7KuElHQnrrayEZ3tEL-36">
          <mxGeometry width="70" height="50" as="geometry">
            <mxRectangle width="70" height="50" as="alternateBounds" />
          </mxGeometry>
        </mxCell>
        <mxCell id="et7KuElHQnrrayEZ3tEL-38" value="labels" style="connectable=0;recursiveResize=0;strokeColor=inherit;fillColor=none;align=center;whiteSpace=wrap;html=1;" vertex="1" parent="et7KuElHQnrrayEZ3tEL-36">
          <mxGeometry x="70" width="70" height="50" as="geometry">
            <mxRectangle width="70" height="50" as="alternateBounds" />
          </mxGeometry>
        </mxCell>
        <mxCell id="et7KuElHQnrrayEZ3tEL-39" value="" style="connectable=0;recursiveResize=0;strokeColor=inherit;fillColor=none;align=center;whiteSpace=wrap;html=1;" vertex="1" parent="et7KuElHQnrrayEZ3tEL-36">
          <mxGeometry x="140" width="72" height="50" as="geometry">
            <mxRectangle width="72" height="50" as="alternateBounds" />
          </mxGeometry>
        </mxCell>
        <mxCell id="et7KuElHQnrrayEZ3tEL-40" style="shape=tableRow;horizontal=0;startSize=0;swimlaneHead=0;swimlaneBody=0;top=0;left=0;bottom=0;right=0;dropTarget=0;collapsible=0;recursiveResize=0;expand=0;fontStyle=0;fillColor=none;strokeColor=inherit;" vertex="1" parent="et7KuElHQnrrayEZ3tEL-35">
          <mxGeometry y="50" width="212" height="93" as="geometry" />
        </mxCell>
        <mxCell id="et7KuElHQnrrayEZ3tEL-41" value="cat.jpeg&lt;div&gt;puffing.png&lt;/div&gt;" style="connectable=0;recursiveResize=0;strokeColor=inherit;fillColor=none;align=center;whiteSpace=wrap;html=1;" vertex="1" parent="et7KuElHQnrrayEZ3tEL-40">
          <mxGeometry width="70" height="93" as="geometry">
            <mxRectangle width="70" height="93" as="alternateBounds" />
          </mxGeometry>
        </mxCell>
        <mxCell id="et7KuElHQnrrayEZ3tEL-42" value="&quot;cat&quot;&lt;div&gt;&quot;puffing&quot;&lt;/div&gt;" style="connectable=0;recursiveResize=0;strokeColor=inherit;fillColor=none;align=center;whiteSpace=wrap;html=1;" vertex="1" parent="et7KuElHQnrrayEZ3tEL-40">
          <mxGeometry x="70" width="70" height="93" as="geometry">
            <mxRectangle width="70" height="93" as="alternateBounds" />
          </mxGeometry>
        </mxCell>
        <mxCell id="et7KuElHQnrrayEZ3tEL-43" value="" style="connectable=0;recursiveResize=0;strokeColor=inherit;fillColor=none;align=center;whiteSpace=wrap;html=1;" vertex="1" parent="et7KuElHQnrrayEZ3tEL-40">
          <mxGeometry x="140" width="72" height="93" as="geometry">
            <mxRectangle width="72" height="93" as="alternateBounds" />
          </mxGeometry>
        </mxCell>
        <mxCell id="et7KuElHQnrrayEZ3tEL-48" value="ImageNet" style="whiteSpace=wrap;html=1;fillColor=none;shadow=0;strokeColor=none;" vertex="1" parent="WIyWlLk6GJQsqaUBKTNV-1">
          <mxGeometry x="674" y="280" width="77" height="60" as="geometry" />
        </mxCell>
        <mxCell id="et7KuElHQnrrayEZ3tEL-50" value="prediction" style="text;strokeColor=none;fillColor=none;align=left;verticalAlign=top;spacingLeft=4;spacingRight=4;overflow=hidden;rotatable=0;points=[[0,0.5],[1,0.5]];portConstraint=eastwest;whiteSpace=wrap;html=1;" vertex="1" parent="WIyWlLk6GJQsqaUBKTNV-1">
          <mxGeometry x="404" y="510" width="60" height="26" as="geometry" />
        </mxCell>
        <mxCell id="et7KuElHQnrrayEZ3tEL-53" value="" style="endArrow=none;html=1;rounded=0;" edge="1" parent="WIyWlLk6GJQsqaUBKTNV-1">
          <mxGeometry width="50" height="50" relative="1" as="geometry">
            <mxPoint x="132" y="440" as="sourcePoint" />
            <mxPoint x="780" y="440" as="targetPoint" />
          </mxGeometry>
        </mxCell>
        <mxCell id="et7KuElHQnrrayEZ3tEL-56" value="" style="edgeStyle=orthogonalEdgeStyle;rounded=0;orthogonalLoop=1;jettySize=auto;html=1;sketch=1;curveFitting=1;jiggle=2;curved=1;" edge="1" parent="WIyWlLk6GJQsqaUBKTNV-1">
          <mxGeometry relative="1" as="geometry">
            <mxPoint x="310" y="440" as="sourcePoint" />
            <mxPoint x="402" y="500" as="targetPoint" />
            <Array as="points">
              <mxPoint x="310" y="480" />
              <mxPoint x="403" y="480" />
            </Array>
          </mxGeometry>
        </mxCell>
        <mxCell id="et7KuElHQnrrayEZ3tEL-57" value="this" style="text;strokeColor=none;fillColor=none;align=left;verticalAlign=top;spacingLeft=4;spacingRight=4;overflow=hidden;rotatable=0;points=[[0,0.5],[1,0.5]];portConstraint=eastwest;whiteSpace=wrap;html=1;" vertex="1" parent="WIyWlLk6GJQsqaUBKTNV-1">
          <mxGeometry x="170" y="380" width="60" height="26" as="geometry" />
        </mxCell>
        <mxCell id="et7KuElHQnrrayEZ3tEL-58" value="" style="edgeStyle=orthogonalEdgeStyle;rounded=0;orthogonalLoop=1;jettySize=auto;html=1;sketch=1;curveFitting=1;jiggle=2;curved=1;exitX=0.317;exitY=-0.115;exitDx=0;exitDy=0;exitPerimeter=0;" edge="1" parent="WIyWlLk6GJQsqaUBKTNV-1" source="et7KuElHQnrrayEZ3tEL-57" target="et7KuElHQnrrayEZ3tEL-8">
          <mxGeometry relative="1" as="geometry">
            <mxPoint x="320" y="450" as="sourcePoint" />
            <mxPoint x="412" y="510" as="targetPoint" />
            <Array as="points">
              <mxPoint x="200" y="377" />
            </Array>
          </mxGeometry>
        </mxCell>
      </root>
    </mxGraphModel>
  </diagram>
</mxfile>
